<?xml version="1.0" standalone="no"?>
<!DOCTYPE svg PUBLIC "-//W3C//DTD SVG 20010904//EN"
 "http://www.w3.org/TR/2001/REC-SVG-20010904/DTD/svg10.dtd">
<svg version="1.0" xmlns="http://www.w3.org/2000/svg"
 width="1245.000000pt" height="1280.000000pt" viewBox="0 0 1245.000000 1280.000000"
 preserveAspectRatio="xMidYMid meet">
<metadata>
Created by potrace 1.15, written by Peter Selinger 2001-2017
</metadata>
<g transform="translate(0.000000,1280.000000) scale(0.100000,-0.100000)"
fill="#FFFFFF" stroke="none">
<path d="M9389 11764 c-19 -31 -72 -108 -119 -172 -47 -65 -105 -145 -129
-180 -23 -34 -75 -102 -114 -150 -40 -48 -84 -103 -97 -122 -14 -19 -57 -77
-97 -128 -40 -51 -120 -162 -178 -247 -58 -85 -110 -157 -116 -160 -9 -6 -124
-149 -204 -255 -22 -29 -63 -81 -90 -114 -28 -34 -59 -74 -69 -91 -11 -16 -59
-77 -106 -135 -48 -58 -105 -130 -128 -160 -23 -30 -68 -85 -99 -122 -32 -37
-94 -109 -137 -160 -44 -51 -85 -93 -93 -93 -7 0 -27 25 -45 55 -24 41 -41 57
-65 64 -30 9 -41 27 -147 240 -63 127 -153 319 -199 426 -47 107 -130 286
-186 397 -55 112 -101 205 -101 209 0 7 -105 236 -160 349 -21 44 -50 106 -64
138 -31 72 -38 72 -182 11 -60 -26 -127 -47 -149 -49 -34 -2 -246 -89 -280
-115 -5 -4 -147 -77 -315 -163 -399 -202 -480 -247 -487 -263 -6 -17 61 -164
336 -728 78 -158 141 -291 141 -294 0 -10 142 -294 173 -346 70 -119 357 -713
357 -740 0 -4 22 -53 49 -109 27 -56 72 -151 100 -210 27 -59 60 -121 71 -137
12 -17 18 -34 15 -40 -13 -21 -165 -10 -575 40 -47 6 -224 17 -395 26 -299 14
-351 17 -461 29 -49 5 -55 8 -180 130 -122 119 -343 285 -378 285 -36 0 -64
159 -66 375 l0 50 38 2 c61 4 309 53 420 83 131 36 241 97 373 209 136 114
160 166 129 280 -13 51 -90 136 -161 178 -55 32 -248 101 -349 123 -33 7 -175
14 -360 17 -363 5 -370 7 -382 88 -28 193 -59 304 -121 433 -50 104 -192 221
-269 222 -89 0 -137 -84 -138 -241 0 -103 -5 -106 -170 -98 -74 3 -186 11
-249 18 -131 15 -215 6 -309 -33 -54 -22 -193 -56 -232 -56 -14 0 -19 11 -25
53 -30 247 -75 358 -154 385 -54 18 -107 -5 -186 -79 -61 -58 -82 -87 -126
-176 l-53 -105 -8 -217 c-11 -326 -14 -354 -35 -368 -11 -7 -76 -14 -163 -18
-328 -13 -368 -16 -425 -31 -33 -8 -89 -21 -125 -29 -82 -18 -267 -109 -345
-170 -86 -66 -188 -168 -232 -232 -34 -50 -37 -60 -37 -122 0 -95 29 -150 116
-217 122 -94 382 -161 583 -150 108 5 263 34 362 67 71 23 169 27 189 7 14
-15 82 -191 120 -313 14 -44 45 -141 69 -215 l43 -135 -29 -53 c-72 -129 -169
-384 -188 -494 -5 -29 -16 -91 -26 -138 -27 -134 -9 -407 39 -605 23 -96 81
-223 132 -289 65 -84 149 -171 209 -215 188 -139 478 -273 641 -296 71 -11 81
-18 89 -72 6 -42 30 -142 109 -443 13 -52 34 -149 46 -215 26 -148 81 -372
130 -533 23 -79 124 -490 140 -577 7 -33 26 -114 44 -180 35 -129 72 -281 106
-440 32 -148 139 -470 169 -510 5 -5 27 -68 51 -140 l43 -130 -12 -115 c-7
-63 -17 -149 -23 -190 -20 -140 -23 -185 -15 -255 11 -102 33 -168 67 -205 39
-42 45 -80 27 -191 -20 -119 -30 -474 -18 -645 7 -121 10 -136 38 -180 17 -29
46 -58 68 -71 62 -34 262 -55 546 -55 240 0 277 8 339 78 84 96 156 360 240
874 33 202 64 340 116 505 36 119 68 178 130 239 l39 39 130 -6 c71 -4 218
-13 326 -21 107 -8 287 -15 399 -16 111 0 207 -3 212 -6 5 -3 260 -7 566 -9
306 -3 609 -8 672 -14 63 -5 122 -9 130 -9 8 0 51 -1 96 -2 l81 -2 17 -77 c17
-81 68 -191 118 -253 51 -65 126 -91 305 -108 46 -4 86 -10 89 -13 3 -3 12
-58 21 -123 12 -98 13 -132 3 -189 -6 -38 -14 -146 -17 -240 -5 -162 -4 -174
21 -264 52 -182 155 -291 321 -337 106 -30 156 -35 355 -34 216 0 323 16 411
61 60 30 84 85 119 269 11 58 26 139 35 180 17 81 27 152 50 330 8 63 28 169
44 235 17 66 31 130 31 143 0 12 9 70 20 130 50 263 60 314 80 427 47 272 74
419 106 580 66 335 84 432 104 555 11 69 25 150 30 180 14 83 31 227 35 305 2
39 13 147 25 240 11 94 29 249 40 345 10 96 25 204 33 240 8 36 18 117 22 180
5 101 11 141 30 226 4 17 15 23 50 27 25 4 67 18 94 32 40 20 58 38 91 92 23
38 62 103 88 145 88 145 111 190 146 284 49 129 52 154 26 254 -23 89 -68 181
-131 265 -21 28 -45 67 -54 88 -29 69 -23 81 88 196 248 259 369 443 447 683
38 118 41 135 42 245 1 181 -17 264 -81 368 -73 118 -208 235 -359 311 l-97
49 -140 -1 c-196 -1 -258 -20 -425 -129 -89 -57 -161 -120 -207 -180 -65 -83
-167 -236 -205 -305 -44 -80 -78 -105 -166 -127 -67 -16 -70 -16 -173 10 -57
15 -136 31 -175 36 -40 6 -112 17 -160 25 -115 20 -373 36 -542 35 -73 -1
-135 1 -138 4 -8 8 49 90 112 163 30 34 90 113 135 175 45 63 109 148 143 189
34 41 85 107 114 147 29 39 57 73 61 75 5 2 63 75 130 163 146 193 275 358
357 457 33 40 88 114 122 163 57 83 105 142 216 266 45 51 105 126 211 264 39
51 113 146 165 211 53 65 118 150 145 188 28 37 87 118 133 180 45 61 81 116
80 122 -2 6 -48 48 -103 94 -55 46 -127 107 -160 136 -161 143 -491 410 -622
505 -43 32 -122 90 -175 130 -53 41 -115 84 -136 96 l-39 22 -34 -55z"/>
<path d="M8748 33 c7 -3 16 -2 19 1 4 3 -2 6 -13 5 -11 0 -14 -3 -6 -6z"/>
</g>
</svg>
